<svg xmlns="http://www.w3.org/2000/svg" viewBox="0 0 64 64" width="64" height="64">
  <defs>
    <linearGradient id="envGradient" x1="0%" y1="0%" x2="100%" y2="100%">
      <stop offset="0%" style="stop-color:#5858AC;stop-opacity:1" />
      <stop offset="100%" style="stop-color:#4B4B9F;stop-opacity:1" />
    </linearGradient>
    <linearGradient id="flowGradient" x1="0%" y1="0%" x2="100%" y2="0%">
      <stop offset="0%" style="stop-color:#7A7AC4;stop-opacity:1" />
      <stop offset="100%" style="stop-color:#5858AC;stop-opacity:1" />
    </linearGradient>
  </defs>
  <!-- Envelope body -->
  <rect x="6" y="16" width="52" height="36" rx="4" fill="url(#envGradient)" />
  <!-- Envelope flap -->
  <path d="M6 20 L32 40 L58 20 L58 16 L6 16 Z" fill="#7A7AC4" />
  <!-- Flow arrows representing data stream -->
  <g fill="#FFFFFF" opacity="0.95">
    <!-- Arrow 1 -->
    <path d="M14 46 L20 46 L20 44 L24 47 L20 50 L20 48 L14 48 Z" />
    <!-- Arrow 2 -->
    <path d="M26 46 L32 46 L32 44 L36 47 L32 50 L32 48 L26 48 Z" />
    <!-- Arrow 3 -->
    <path d="M38 46 L44 46 L44 44 L48 47 L44 50 L44 48 L38 48 Z" />
  </g>
  <!-- Connection indicator dot -->
  <circle cx="52" cy="22" r="6" fill="#10B981" />
  <circle cx="52" cy="22" r="3" fill="#FFFFFF" />
</svg>
